<svg width="26" height="26" viewBox="0 0 26 26" fill="none" xmlns="http://www.w3.org/2000/svg">
<path d="M13.314 14.1528L6.67334 20.7935C6.21436 21.2524 5.47217 21.2524 5.01807 20.7935L3.91455 19.6899C3.45557 19.231 3.45557 18.4888 3.91455 18.0347L8.62158 13.3276L3.91455 8.62061C3.45557 8.16162 3.45557 7.41943 3.91455 6.96533L5.01318 5.85205C5.47217 5.39307 6.21436 5.39307 6.66846 5.85205L13.3091 12.4927C13.7729 12.9517 13.7729 13.6938 13.314 14.1528V14.1528ZM22.689 12.4927L16.0483 5.85205C15.5894 5.39307 14.8472 5.39307 14.3931 5.85205L13.2896 6.95557C12.8306 7.41455 12.8306 8.15674 13.2896 8.61084L17.9966 13.3179L13.2896 18.0249C12.8306 18.4839 12.8306 19.2261 13.2896 19.6802L14.3931 20.7837C14.8521 21.2427 15.5942 21.2427 16.0483 20.7837L22.689 14.1431C23.1479 13.6938 23.1479 12.9517 22.689 12.4927Z" fill="black"/>
</svg>
