<svg width="45" height="45" viewBox="0 0 45 45" fill="none" xmlns="http://www.w3.org/2000/svg">
<path d="M3.75 22.5L2.96913 21.8753L2.46938 22.5L2.96913 23.1247L3.75 22.5ZM20.625 23.5C21.1773 23.5 21.625 23.0523 21.625 22.5C21.625 21.9477 21.1773 21.5 20.625 21.5V23.5ZM10.4691 12.5003L2.96913 21.8753L4.53087 23.1247L12.0309 13.7497L10.4691 12.5003ZM2.96913 23.1247L10.4691 32.4997L12.0309 31.2503L4.53087 21.8753L2.96913 23.1247ZM3.75 23.5H20.625V21.5H3.75V23.5Z" fill="#5D5FEF"/>
<path d="M22.0924 38.0571L21.928 39.0435L22.0924 38.0571ZM19.224 37.0985L19.987 36.4521L19.224 37.0985ZM40.1891 39.9977L39.5427 39.2347L40.1891 39.9977ZM40.1891 5.00232L39.5427 5.76534L40.1891 5.00232ZM22.2568 7.92933L34.428 5.90079L34.0992 3.92801L21.928 5.95654L22.2568 7.92933ZM40.25 10.8328V34.1672H42.25V10.8328H40.25ZM34.428 39.0992L22.2568 37.0707L21.928 39.0435L34.0992 41.072L34.428 39.0992ZM19.75 15.2474V10.8885H17.75V15.2474H19.75ZM19.75 34.1115V30.1237H17.75V34.1115H19.75ZM22.2568 37.0707C21.4333 36.9334 20.9073 36.8439 20.5226 36.7294C20.1647 36.6228 20.051 36.5276 19.987 36.4521L18.4609 37.7449C18.8709 38.2288 19.3932 38.4799 19.952 38.6462C20.4839 38.8046 21.1552 38.9147 21.928 39.0435L22.2568 37.0707ZM17.75 34.1115C17.75 34.895 17.7482 35.5752 17.8169 36.126C17.8892 36.7044 18.051 37.2609 18.4609 37.7449L19.987 36.4521C19.923 36.3766 19.8478 36.2487 19.8015 35.8782C19.7518 35.4799 19.75 34.9463 19.75 34.1115H17.75ZM40.25 34.1672C40.25 35.8417 40.2476 36.9903 40.1273 37.8379C40.0109 38.6577 39.8067 39.0111 39.5427 39.2347L40.8355 40.7607C41.6325 40.0856 41.9586 39.1676 42.1075 38.1189C42.2524 37.0979 42.25 35.7806 42.25 34.1672H40.25ZM34.0992 41.072C35.6906 41.3372 36.9896 41.5561 38.0205 41.5811C39.0794 41.6066 40.0385 41.4358 40.8355 40.7607L39.5427 39.2347C39.2788 39.4582 38.8967 39.6016 38.0689 39.5816C37.213 39.561 36.0797 39.3745 34.428 39.0992L34.0992 41.072ZM34.428 5.90079C36.0797 5.62551 37.213 5.43904 38.0689 5.41836C38.8967 5.39836 39.2788 5.54177 39.5427 5.76534L40.8355 4.2393C40.0385 3.56418 39.0794 3.39336 38.0205 3.41895C36.9896 3.44385 35.6906 3.66277 34.0992 3.92801L34.428 5.90079ZM42.25 10.8328C42.25 9.21941 42.2524 7.90211 42.1075 6.88109C41.9586 5.83239 41.6325 4.91442 40.8355 4.2393L39.5427 5.76534C39.8067 5.98891 40.0109 6.34225 40.1273 7.16214C40.2476 8.00971 40.25 9.15829 40.25 10.8328H42.25ZM21.928 5.95654C21.1552 6.08534 20.4839 6.19537 19.952 6.35375C19.3932 6.5201 18.8709 6.77116 18.4609 7.25513L19.987 8.54788C20.051 8.47236 20.1647 8.37716 20.5226 8.27061C20.9073 8.15609 21.4333 8.06658 22.2568 7.92933L21.928 5.95654ZM19.75 10.8885C19.75 10.0537 19.7518 9.52008 19.8015 9.12183C19.8478 8.75128 19.923 8.6234 19.987 8.54788L18.4609 7.25513C18.051 7.7391 17.8892 8.29555 17.8169 8.87405C17.7482 9.42484 17.75 10.105 17.75 10.8885H19.75Z" fill="#5D5FEF"/>
</svg>
